<svg width="18" height="24" viewBox="0 0 18 24" fill="none" xmlns="http://www.w3.org/2000/svg">
<g clip-path="url(#clip0_1953_12937)">
<path d="M17.2382 12.0478C17.0381 11.877 16.7557 11.841 16.519 11.9562L12.8977 13.7191L9.49982 9.80142C9.37415 9.65649 9.19174 9.57324 8.99989 9.57324C8.80805 9.57324 8.62566 9.65649 8.49996 9.80142L5.10207 13.7191L1.48076 11.9562C1.24408 11.841 0.961701 11.8769 0.761517 12.0478C0.561334 12.2186 0.481392 12.4919 0.557925 12.7437L3.07263 21.0157C3.15737 21.2945 3.41443 21.485 3.70577 21.485H14.294C14.5853 21.485 14.8424 21.2945 14.9271 21.0157L17.4418 12.7437C17.5184 12.4919 17.4384 12.2186 17.2382 12.0478ZM13.8035 20.1615H4.19624L2.26551 13.8103L4.97947 15.1315C5.24894 15.2627 5.57274 15.1964 5.76906 14.9701L8.99989 11.245L12.2308 14.9701C12.427 15.1965 12.7509 15.2626 13.0203 15.1315L15.7343 13.8103L13.8035 20.1615Z" fill="#25292A"/>
</g>
<path d="M13.2363 5.76021C13.1939 5.75316 13.1445 5.75316 13.1022 5.76021C12.128 5.72492 11.3516 4.92727 11.3516 3.93904C11.3516 2.92962 12.1633 2.11786 13.1727 2.11786C14.1821 2.11786 14.9939 2.93668 14.9939 3.93904C14.9869 4.92727 14.2104 5.72492 13.2363 5.76021Z" stroke="#25292A" stroke-width="1.05882" stroke-linecap="round" stroke-linejoin="round"/>
<path d="M12.5095 10.899C13.4765 11.0614 14.5424 10.892 15.2906 10.3908C16.2859 9.72727 16.2859 8.64022 15.2906 7.97669C14.5353 7.47551 13.4553 7.30609 12.4883 7.4755" stroke="#25292A" stroke-width="1.05882" stroke-linecap="round" stroke-linejoin="round"/>
<path d="M4.74202 5.76021C4.78438 5.75316 4.83379 5.75316 4.87614 5.76021C5.85026 5.72492 6.62673 4.92727 6.62673 3.93904C6.62673 2.92962 5.81496 2.11786 4.80555 2.11786C3.79614 2.11786 2.98438 2.93668 2.98438 3.93904C2.99143 4.92727 3.76791 5.72492 4.74202 5.76021Z" stroke="#25292A" stroke-width="1.05882" stroke-linecap="round" stroke-linejoin="round"/>
<path d="M5.46905 10.899C4.50199 11.0614 3.43611 10.892 2.68788 10.3908C1.69258 9.72727 1.69258 8.64022 2.68788 7.97669C3.44317 7.47551 4.52317 7.30609 5.49023 7.4755" stroke="#25292A" stroke-width="1.05882" stroke-linecap="round" stroke-linejoin="round"/>
<defs>
<clipPath id="clip0_1953_12937">
<rect width="16.9412" height="16.9412" fill="white" transform="translate(0.529297 7.0589)"/>
</clipPath>
</defs>
</svg>
