<svg width="13" height="24" viewBox="0 0 13 24" fill="none" xmlns="http://www.w3.org/2000/svg">
<path d="M11.4287 11.7266L2.00684 21.2578L7.02148 11.7266H11.4287ZM6.41797 10.7266H1.31543L10.9033 2.2002L6.41797 10.7266Z" stroke="#0071BC"/>
<mask id="path-2-inside-1_7293_5402" fill="white">
<path d="M0 23.994L12.6257 11.2207H11.522L0 23.994Z"/>
</mask>
<path d="M0 23.994L12.6257 11.2207H11.522L0 23.994Z" fill="#A3D5F2"/>
<path d="M0 23.994L-0.742542 23.3242L0.711205 24.697L0 23.994ZM12.6257 11.2207L13.3369 11.9237L15.0202 10.2207H12.6257V11.2207ZM11.522 11.2207V10.2207H11.0773L10.7794 10.5509L11.522 11.2207ZM0 23.994L0.711205 24.697L13.3369 11.9237L12.6257 11.2207L11.9145 10.5177L-0.711205 23.291L0 23.994ZM12.6257 11.2207V10.2207H11.522V11.2207V12.2207H12.6257V11.2207ZM11.522 11.2207L10.7794 10.5509L-0.742542 23.3242L0 23.994L0.742542 24.6638L12.2645 11.8905L11.522 11.2207Z" fill="#0071BC" mask="url(#path-2-inside-1_7293_5402)"/>
<mask id="path-4-inside-2_7293_5402" fill="white">
<path d="M0 11.2267L12.6257 0L1.05448 11.2267H0Z"/>
</mask>
<path d="M0 11.2267L12.6257 0L1.05448 11.2267H0Z" fill="#87FCF6"/>
<path d="M0 11.2267L-0.664493 10.4794L-2.62952 12.2267H0V11.2267ZM12.6257 0L13.322 0.717709L11.9612 -0.747295L12.6257 0ZM1.05448 11.2267V12.2267H1.45987L1.75082 11.9444L1.05448 11.2267ZM0 11.2267L0.664493 11.974L13.2901 0.747295L12.6257 0L11.9612 -0.747295L-0.664493 10.4794L0 11.2267ZM12.6257 0L11.9293 -0.717709L0.358138 10.509L1.05448 11.2267L1.75082 11.9444L13.322 0.717709L12.6257 0ZM1.05448 11.2267V10.2267H0V11.2267V12.2267H1.05448V11.2267Z" fill="#0071BC" mask="url(#path-4-inside-2_7293_5402)"/>
</svg>
