<svg width="20" height="21" viewBox="0 0 20 21" fill="none" xmlns="http://www.w3.org/2000/svg">
<path d="M9.99935 2.16675C5.40768 2.16675 1.66602 5.90841 1.66602 10.5001C1.66602 15.0917 5.40768 18.8334 9.99935 18.8334C14.591 18.8334 18.3327 15.0917 18.3327 10.5001C18.3327 5.90841 14.591 2.16675 9.99935 2.16675ZM9.37435 7.16675C9.37435 6.82508 9.65768 6.54175 9.99935 6.54175C10.341 6.54175 10.6243 6.82508 10.6243 7.16675V11.3334C10.6243 11.6751 10.341 11.9584 9.99935 11.9584C9.65768 11.9584 9.37435 11.6751 9.37435 11.3334V7.16675ZM10.766 14.1501C10.7243 14.2584 10.666 14.3417 10.591 14.4251C10.5077 14.5001 10.416 14.5584 10.316 14.6001C10.216 14.6417 10.1077 14.6667 9.99935 14.6667C9.89102 14.6667 9.78268 14.6417 9.68268 14.6001C9.58268 14.5584 9.49102 14.5001 9.40768 14.4251C9.33268 14.3417 9.27435 14.2584 9.23268 14.1501C9.19102 14.0501 9.16602 13.9417 9.16602 13.8334C9.16602 13.7251 9.19102 13.6167 9.23268 13.5167C9.27435 13.4167 9.33268 13.3251 9.40768 13.2417C9.49102 13.1667 9.58268 13.1084 9.68268 13.0667C9.88268 12.9834 10.116 12.9834 10.316 13.0667C10.416 13.1084 10.5077 13.1667 10.591 13.2417C10.666 13.3251 10.7243 13.4167 10.766 13.5167C10.8077 13.6167 10.8327 13.7251 10.8327 13.8334C10.8327 13.9417 10.8077 14.0501 10.766 14.1501Z" fill="#0071BC"/>
</svg>
