<svg width="64" height="64" viewBox="0 0 64 64" fill="none" xmlns="http://www.w3.org/2000/svg">
<path d="M54.7613 34.165H49.8118C50.3163 35.5463 50.592 37.0369 50.592 38.5905V57.2968C50.592 57.9446 50.4792 58.5663 50.2741 59.1446H58.4567C61.5134 59.1446 64 56.6578 64 53.6013V43.4037C64.0001 38.3095 59.8556 34.165 54.7613 34.165Z" fill="#0071BC"/>
<path d="M13.4082 38.5907C13.4082 37.0369 13.6838 35.5464 14.1883 34.1652H9.23877C4.14451 34.1652 0 38.3097 0 43.4039V53.6016C0 56.6581 2.48663 59.1448 5.54326 59.1448H13.726C13.5209 58.5663 13.4082 57.9447 13.4082 57.297V38.5907Z" fill="#0071BC"/>
<path d="M37.6577 29.3519H26.3424C21.2481 29.3519 17.1036 33.4964 17.1036 38.5907V57.297C17.1036 58.3174 17.9309 59.1447 18.9514 59.1447H45.0487C46.0692 59.1447 46.8964 58.3175 46.8964 57.297V38.5907C46.8964 33.4964 42.7519 29.3519 37.6577 29.3519Z" fill="#0071BC"/>
<path d="M32.0001 4.85498C25.8735 4.85498 20.8893 9.83924 20.8893 15.9659C20.8893 20.1215 23.1829 23.7509 26.5702 25.6564C28.1768 26.5602 30.0291 27.0767 32.0001 27.0767C33.9711 27.0767 35.8233 26.5602 37.4299 25.6564C40.8173 23.7509 43.1108 20.1214 43.1108 15.9659C43.1108 9.83936 38.1266 4.85498 32.0001 4.85498Z" fill="#0071BC"/>
<path d="M12.4897 15.2112C7.90787 15.2112 4.18036 18.9387 4.18036 23.5206C4.18036 28.1025 7.90787 31.83 12.4897 31.83C13.652 31.83 14.7588 31.5892 15.7641 31.1565C17.5024 30.4081 18.9356 29.0833 19.8225 27.424C20.445 26.2593 20.7991 24.9307 20.7991 23.5206C20.7991 18.9388 17.0716 15.2112 12.4897 15.2112Z" fill="#0071BC"/>
<path d="M51.5103 15.2112C46.9284 15.2112 43.2009 18.9387 43.2009 23.5206C43.2009 24.9308 43.5551 26.2595 44.1776 27.424C45.0644 29.0835 46.4977 30.4082 48.2359 31.1565C49.2413 31.5892 50.3481 31.83 51.5103 31.83C56.0922 31.83 59.8197 28.1025 59.8197 23.5206C59.8197 18.9387 56.0922 15.2112 51.5103 15.2112Z" fill="#0071BC"/>
</svg>
