<svg width="25" height="24" viewBox="0 0 25 24" fill="none" xmlns="http://www.w3.org/2000/svg">
<g clip-path="url(#clip0_2168_100629)">
<path d="M19.7285 9.75177C20.9186 9.81217 22.0479 10.3114 22.8945 11.158C23.7976 12.0612 24.3052 13.2861 24.3066 14.5633C24.3066 15.048 24.1546 15.6546 23.9111 16.3192C23.6669 16.9857 23.3278 17.7189 22.9453 18.4588C22.1803 19.9385 21.2395 21.4522 20.5381 22.5301C20.4244 22.7049 20.2692 22.8496 20.0859 22.949C19.9028 23.0483 19.6976 23.1004 19.4893 23.1004C19.2809 23.1004 19.0757 23.0483 18.8926 22.949C18.7094 22.8496 18.5531 22.7058 18.4395 22.5311C17.7381 21.4532 16.7982 19.9386 16.0332 18.4588C15.6507 17.7189 15.3106 16.9857 15.0664 16.3192C14.8229 15.6547 14.6719 15.048 14.6719 14.5633C14.6733 13.2861 15.1809 12.0611 16.084 11.158C16.9872 10.2549 18.212 9.74728 19.4893 9.74591L19.7285 9.75177ZM19.4893 10.7537C18.4778 10.7537 17.5075 11.155 16.791 11.869C16.0746 12.583 15.6705 13.5518 15.667 14.5633C15.6671 14.8463 15.748 15.2337 15.9092 15.7147C16.0699 16.1941 16.3083 16.7606 16.6182 17.4002C17.238 18.6797 18.1416 20.247 19.2744 21.9881C19.2977 22.0238 19.3297 22.0537 19.3672 22.074C19.4047 22.0943 19.4467 22.1043 19.4893 22.1043C19.5318 22.1043 19.5739 22.0943 19.6113 22.074C19.6488 22.0537 19.6808 22.0238 19.7041 21.9881L20.1182 21.3436C21.0586 19.8597 21.8179 18.5198 22.3604 17.4002C22.6702 16.7605 22.9087 16.1942 23.0693 15.7147C23.2305 15.2336 23.3114 14.8464 23.3115 14.5633C23.308 13.5518 22.9039 12.5829 22.1875 11.869C21.471 11.155 20.5007 10.7537 19.4893 10.7537Z" fill="#0071BC" stroke="#0071BC" stroke-width="0.2"/>
<path d="M19.4883 13.4597C20.0625 13.4603 20.6134 13.6884 21.0195 14.0944C21.4257 14.5006 21.6546 15.0513 21.6553 15.6257C21.6553 16.0542 21.5281 16.4735 21.29 16.8298C21.052 17.186 20.7133 17.4636 20.3174 17.6276C19.9215 17.7915 19.4856 17.8343 19.0654 17.7507C18.6453 17.667 18.259 17.4608 17.9561 17.1579C17.6532 16.8549 17.4469 16.4687 17.3633 16.0485C17.2797 15.6283 17.3233 15.1924 17.4873 14.7966C17.6513 14.4008 17.9289 14.0619 18.2852 13.8239C18.6413 13.5861 19.06 13.4597 19.4883 13.4597ZM19.2598 14.4772C19.0326 14.5225 18.8239 14.6338 18.6602 14.7975C18.4964 14.9613 18.3851 15.17 18.3398 15.3972C18.2947 15.6243 18.3177 15.8599 18.4062 16.0739C18.4949 16.288 18.6452 16.4716 18.8379 16.6003C19.0304 16.7288 19.2568 16.7975 19.4883 16.7975C19.7989 16.7972 20.0968 16.6734 20.3164 16.4538C20.536 16.2341 20.6598 15.9363 20.6602 15.6257C20.6601 15.3942 20.5915 15.1678 20.4629 14.9753C20.3342 14.7826 20.1506 14.6323 19.9365 14.5436C19.7225 14.4551 19.4869 14.432 19.2598 14.4772Z" fill="#0071BC" stroke="#0071BC" stroke-width="0.2"/>
<path d="M1.19043 6.5694C1.25612 6.5694 1.3212 6.58222 1.38184 6.60748C1.44252 6.63281 1.49769 6.67012 1.54395 6.71686C1.59018 6.7636 1.62668 6.81901 1.65137 6.87994C1.67597 6.94074 1.6891 7.00578 1.68848 7.07135V11.1456C1.68856 11.2136 1.71556 11.2791 1.76367 11.3272C1.81167 11.3751 1.87653 11.4022 1.94434 11.4024H2.89258C3.02437 11.4025 3.15092 11.4547 3.24414 11.5479C3.33746 11.6412 3.38965 11.7685 3.38965 11.9005C3.38952 12.0323 3.33736 12.1588 3.24414 12.252C3.15092 12.3452 3.02439 12.3974 2.89258 12.3975H1.94434C1.61261 12.3971 1.29414 12.2649 1.05957 12.0303C0.825157 11.7957 0.693777 11.4772 0.693359 11.1456V7.07135C0.692733 7.00577 0.704889 6.94074 0.729492 6.87994C0.754169 6.81899 0.790674 6.76361 0.836914 6.71686C0.883188 6.67008 0.938301 6.63283 0.999023 6.60748C1.05968 6.58218 1.1247 6.56941 1.19043 6.5694Z" fill="#0071BC" stroke="#0071BC" stroke-width="0.2"/>
<path d="M5.95215 2.85046L6.04199 2.85437C6.25033 2.87518 6.44636 2.96773 6.5957 3.11707C6.76622 3.28768 6.86208 3.5194 6.8623 3.76062V11.0077C6.86088 11.1387 6.80797 11.2642 6.71484 11.3563C6.6218 11.4484 6.4961 11.4998 6.36523 11.4999C6.2342 11.4999 6.10781 11.4485 6.01465 11.3563C5.92154 11.2642 5.86861 11.1387 5.86719 11.0077V3.84558H3.57715V9.17078C3.5771 9.23599 3.56402 9.30096 3.53906 9.36121C3.51406 9.42146 3.4768 9.47621 3.43066 9.52234C3.38452 9.56841 3.32978 9.6048 3.26953 9.62976C3.20916 9.65476 3.14445 9.66785 3.0791 9.66785C2.94725 9.66782 2.82081 9.61553 2.72754 9.52234C2.63432 9.42912 2.58213 9.30259 2.58203 9.17078V3.76062C2.58225 3.51932 2.67801 3.28769 2.84863 3.11707C3.01927 2.94644 3.25087 2.85067 3.49219 2.85046H5.95215Z" fill="#0071BC" stroke="#0071BC" stroke-width="0.2"/>
<path d="M8.2998 -0.0996094L8.38965 -0.0957031C8.59801 -0.0749244 8.79399 0.0176533 8.94336 0.166992C9.11392 0.337609 9.20974 0.569292 9.20996 0.810547V10.1494C9.20996 10.2549 9.25358 10.3472 9.3125 10.4131C9.37425 10.482 9.44043 10.5087 9.47559 10.5088H10.9893C11.0545 10.5083 11.1192 10.5214 11.1797 10.5459C11.2406 10.5706 11.296 10.6071 11.3428 10.6533C11.3896 10.6996 11.4268 10.7547 11.4521 10.8154C11.4775 10.8761 11.4912 10.9411 11.4912 11.0068C11.4912 11.0726 11.4775 11.1375 11.4521 11.1982C11.4268 11.259 11.3896 11.3141 11.3428 11.3604C11.296 11.4066 11.2406 11.4431 11.1797 11.4678C11.1192 11.4923 11.0545 11.5044 10.9893 11.5039V11.5049H9.47559C8.79488 11.5047 8.21484 10.8656 8.21484 10.1494V0.895508H5.9248V1.94434C5.92481 2.00963 5.91168 2.07443 5.88672 2.13477C5.8618 2.19494 5.82529 2.24979 5.7793 2.2959C5.73309 2.34211 5.67756 2.37929 5.61719 2.4043C5.55687 2.42925 5.49203 2.44239 5.42676 2.44238C5.36149 2.44237 5.29663 2.42926 5.23633 2.4043C5.17614 2.37935 5.12131 2.3429 5.0752 2.29688C5.02898 2.25067 4.99181 2.19514 4.9668 2.13477C4.94188 2.07449 4.92969 2.00957 4.92969 1.94434V0.810547C4.92991 0.569243 5.02566 0.33762 5.19629 0.166992C5.36692 -0.00363542 5.59854 -0.0993863 5.83984 -0.0996094H8.2998Z" fill="#0071BC" stroke="#0071BC" stroke-width="0.2"/>
<path d="M12.8857 1.82153C13.0988 1.80489 13.3126 1.84751 13.5029 1.94458C13.6932 2.04162 13.8533 2.18925 13.9648 2.37134C14.0764 2.55344 14.1347 2.76326 14.1348 2.97681V11.0081C14.1333 11.139 14.0804 11.2646 13.9873 11.3567C13.8942 11.4486 13.7685 11.5002 13.6377 11.5002C13.5069 11.5002 13.3812 11.4486 13.2881 11.3567C13.195 11.2646 13.1411 11.139 13.1396 11.0081V2.97681C13.1396 2.94685 13.1318 2.91743 13.1162 2.89185C13.1005 2.86613 13.0776 2.84502 13.0508 2.8313C13.024 2.81764 12.9938 2.81145 12.9639 2.81372C12.9338 2.81608 12.9043 2.82724 12.8799 2.84497L11.4502 3.8811V9.34399C11.4501 9.47578 11.3969 9.60236 11.3037 9.69556C11.2104 9.78868 11.084 9.84105 10.9521 9.84106C10.8203 9.84103 10.6939 9.78873 10.6006 9.69556C10.5074 9.60235 10.4552 9.47579 10.4551 9.34399V3.68481L10.4619 3.60083C10.4668 3.57299 10.4739 3.54551 10.4834 3.5188H10.4844C10.4958 3.461 10.515 3.40503 10.5459 3.35474C10.58 3.29918 10.6249 3.25042 10.6777 3.21216L12.2959 2.03931C12.4688 1.91389 12.6728 1.8382 12.8857 1.82153Z" fill="#0071BC" stroke="#0071BC" stroke-width="0.2"/>
<path d="M11.0713 13.543C11.5884 13.5457 12.0835 13.7526 12.4482 14.1192C12.813 14.4858 13.0175 14.982 13.0176 15.4991C13.0176 16.0162 12.8129 16.5123 12.4482 16.879C12.0835 17.2455 11.5884 17.4534 11.0713 17.4561H7.86133C7.55355 17.4561 7.24824 17.5161 6.96387 17.6339C6.67943 17.7517 6.42084 17.925 6.20312 18.1426C5.98538 18.3604 5.81218 18.6189 5.69434 18.9034C5.57653 19.1878 5.51562 19.493 5.51562 19.8008C5.51565 20.1087 5.57652 20.4139 5.69434 20.6983C5.81217 20.9827 5.98544 21.2414 6.20312 21.459C6.4208 21.6766 6.67952 21.8491 6.96387 21.9669C7.24829 22.0846 7.55348 22.1456 7.86133 22.1456H15.9512C16.0822 22.147 16.2077 22.1999 16.2998 22.293C16.3919 22.3861 16.4432 22.5118 16.4434 22.6426C16.4434 22.7737 16.392 22.9001 16.2998 22.9932C16.2077 23.0863 16.0821 23.1393 15.9512 23.1407H7.86133C6.97551 23.1407 6.1254 22.7885 5.49902 22.1622C4.8728 21.5359 4.52056 20.6865 4.52051 19.8008C4.52051 18.915 4.87265 18.0649 5.49902 17.4385C6.12538 16.8122 6.97556 16.461 7.86133 16.461H11.0693C11.3231 16.4593 11.5662 16.3568 11.7451 16.1768C11.924 15.9967 12.0244 15.753 12.0244 15.4991C12.0244 15.2453 11.924 15.0014 11.7451 14.8214C11.5885 14.6639 11.383 14.5661 11.1641 14.543L11.0693 14.5381H2.37891V14.5372C2.31333 14.5378 2.2483 14.5256 2.1875 14.501C2.12656 14.4764 2.07116 14.4399 2.02441 14.3936C1.97768 14.3474 1.94037 14.2922 1.91504 14.2315C1.88978 14.1709 1.87695 14.1058 1.87695 14.0401C1.87697 13.9744 1.88973 13.9094 1.91504 13.8487C1.94038 13.788 1.97763 13.7329 2.02441 13.6866C2.07117 13.6403 2.12655 13.6038 2.1875 13.5792C2.2483 13.5546 2.31333 13.5434 2.37891 13.544V13.543H11.0713Z" fill="#0071BC" stroke="#0071BC" stroke-width="0.2"/>
</g>
<defs>
<clipPath id="clip0_2168_100629">
<rect width="24" height="24" fill="white" transform="translate(0.5)"/>
</clipPath>
</defs>
</svg>
