<svg width="64" height="64" viewBox="0 0 64 64" fill="none" xmlns="http://www.w3.org/2000/svg">
<path d="M37.4987 7.78136C36.336 6.89336 34.8587 6.60269 33.4427 6.98936L11.4054 12.9974C8.22402 13.864 6.00269 16.776 6.00269 20.072V50.664C6.00269 54.7094 9.29069 57.9974 13.336 57.9974H14.0027V45.3307C14.0027 42.7574 16.096 40.664 18.6694 40.664H26.6694C29.2427 40.664 31.336 42.7574 31.336 45.3307V57.9974H37.336C38.44 57.9974 39.336 57.1014 39.336 55.9974V11.4907C39.336 10.024 38.664 8.67203 37.4987 7.78136ZM26.6667 34H18.6667C17.5627 34 16.6667 33.104 16.6667 32C16.6667 30.896 17.5627 30 18.6667 30H26.6667C27.7707 30 28.6667 30.896 28.6667 32C28.6667 33.104 27.7707 34 26.6667 34ZM26.6667 26H18.6667C17.5627 26 16.6667 25.104 16.6667 24C16.6667 22.896 17.5627 22 18.6667 22H26.6667C27.7707 22 28.6667 22.896 28.6667 24C28.6667 25.104 27.7707 26 26.6667 26ZM27.3334 45.3334V58H18V45.3334C18 44.9654 18.2987 44.6667 18.6667 44.6667H26.6667C27.0347 44.6667 27.3334 44.9654 27.3334 45.3334ZM53.5467 26.1067L43.3334 21.7334V56C43.3334 56.6934 43.2 57.3867 42.9867 58H50.6667C54.72 58 58 54.72 58 50.6667V32.8534C58 29.92 56.2667 27.28 53.5467 26.1067ZM50.6667 47.3334H48C46.896 47.3334 46 46.4374 46 45.3334C46 44.2294 46.896 43.3334 48 43.3334H50.6667C51.7707 43.3334 52.6667 44.2294 52.6667 45.3334C52.6667 46.4374 51.7707 47.3334 50.6667 47.3334ZM50.6667 39.3334H48C46.896 39.3334 46 38.4374 46 37.3334C46 36.2294 46.896 35.3334 48 35.3334H50.6667C51.7707 35.3334 52.6667 36.2294 52.6667 37.3334C52.6667 38.4374 51.7707 39.3334 50.6667 39.3334Z" fill="#6C38B2"/>
</svg>
