<svg width="32" height="32" viewBox="0 0 32 32" fill="none" xmlns="http://www.w3.org/2000/svg">
<path d="M14.666 2.66666H11.9993C5.33268 2.66666 2.66602 5.33332 2.66602 12V20C2.66602 26.6667 5.33268 29.3333 11.9993 29.3333H19.9993C26.666 29.3333 29.3327 26.6667 29.3327 20V17.3333" stroke="#0071BC" stroke-width="1.5" stroke-linecap="round" stroke-linejoin="round"/>
<path d="M21.3865 4.02667L10.8798 14.5333C10.4798 14.9333 10.0798 15.72 9.99984 16.2933L9.42651 20.3067C9.21317 21.76 10.2398 22.7733 11.6932 22.5733L15.7065 22C16.2665 21.92 17.0532 21.52 17.4665 21.12L27.9732 10.6133C29.7865 8.8 30.6398 6.69333 27.9732 4.02667C25.3065 1.36 23.1998 2.21333 21.3865 4.02667Z" stroke="#0071BC" stroke-width="1.5" stroke-miterlimit="10" stroke-linecap="round" stroke-linejoin="round"/>
<path d="M19.8809 5.53333C20.7742 8.71999 23.2675 11.2133 26.4675 12.12" stroke="#0071BC" stroke-width="1.5" stroke-miterlimit="10" stroke-linecap="round" stroke-linejoin="round"/>
</svg>
