<svg width="64" height="64" viewBox="0 0 64 64" fill="none" xmlns="http://www.w3.org/2000/svg">
<path d="M22.1067 16.7734C20.9867 16.7734 20.1067 15.8667 20.1067 14.7734V7.33337C20.1067 6.24004 20.9867 5.33337 22.1067 5.33337C23.2267 5.33337 24.1067 6.24004 24.1067 7.33337V14.7467C24.1067 15.8667 23.2267 16.7734 22.1067 16.7734Z" fill="#0071BC"/>
<path d="M41.8933 16.7734C40.7733 16.7734 39.8933 15.8667 39.8933 14.7734V7.33337C39.8933 6.21337 40.8 5.33337 41.8933 5.33337C43.0133 5.33337 43.8933 6.24004 43.8933 7.33337V14.7467C43.8933 15.8667 43.0133 16.7734 41.8933 16.7734Z" fill="#0071BC"/>
<path d="M52.1866 12C50.4266 10.6934 47.8933 11.9467 47.8933 14.16V14.4267C47.8933 17.5467 45.6533 20.4267 42.5333 20.7467C38.9333 21.12 35.8933 18.2934 35.8933 14.7734V12C35.8933 10.5334 34.6933 9.33337 33.2266 9.33337H30.7733C29.3066 9.33337 28.1066 10.5334 28.1066 12V14.7734C28.1066 16.88 27.0133 18.7467 25.36 19.7867C25.12 19.9467 24.8533 20.08 24.5866 20.2134C24.3466 20.3467 24.08 20.4534 23.7866 20.5334C23.4666 20.64 23.12 20.72 22.7466 20.7467C22.32 20.8 21.8933 20.8 21.4666 20.7467C21.0933 20.72 20.7466 20.64 20.4266 20.5334C20.16 20.4534 19.8933 20.3467 19.6266 20.2134C19.36 20.08 19.0933 19.9467 18.8533 19.7867C17.1733 18.6134 16.1066 16.5867 16.1066 14.4267V14.16C16.1066 12.1067 13.92 10.88 12.1866 11.76C12.16 11.7867 12.1333 11.7867 12.1066 11.8134C12 11.8667 11.92 11.92 11.8133 12C11.7333 12.08 11.6266 12.1334 11.5466 12.2134C10.8 12.8 10.1333 13.4667 9.57329 14.1867C9.27996 14.5067 9.03996 14.8534 8.82663 15.2C8.79996 15.2267 8.77329 15.2534 8.74663 15.3067C8.50663 15.6534 8.29329 16.0534 8.10663 16.4267C8.05329 16.48 8.02663 16.5067 8.02663 16.56C7.86663 16.88 7.70663 17.2 7.59996 17.5467C7.51996 17.68 7.49329 17.7867 7.43996 17.92C7.27996 18.32 7.17329 18.72 7.06663 19.12C6.95996 19.4934 6.87996 19.8934 6.82663 20.2934C6.77329 20.5867 6.74663 20.88 6.71996 21.2C6.69329 21.5734 6.66663 21.9467 6.66663 22.32V45.68C6.66663 52.8534 12.48 58.6667 19.6533 58.6667H44.3466C51.52 58.6667 57.3333 52.8534 57.3333 45.68V22.32C57.3333 18.08 55.3066 14.3734 52.1866 12ZM32 46.4534H19.6266C18.5333 46.4534 17.6266 45.5467 17.6266 44.4534C17.6266 43.3334 18.5333 42.4267 19.6266 42.4267H32C33.12 42.4267 34 43.3334 34 44.4534C34 45.5467 33.12 46.4534 32 46.4534ZM39.4133 36.56H19.6266C18.5333 36.56 17.6266 35.6534 17.6266 34.56C17.6266 33.44 18.5333 32.5334 19.6266 32.5334H39.4133C40.5333 32.5334 41.44 33.44 41.44 34.56C41.44 35.6534 40.5333 36.56 39.4133 36.56Z" fill="#0071BC"/>
</svg>
