<svg width="231" height="27" viewBox="0 0 231 27" fill="none" xmlns="http://www.w3.org/2000/svg">
<path d="M0 27L14.2039 12.6301H0L14.2039 0L0 27Z" fill="white"/>
<path d="M0 27L14.2039 12.6301H12.9622L0 27Z" fill="#A3D5F2"/>
<path d="M0 12.6301L14.2039 0L1.18629 12.6301H0Z" fill="#87FCF6"/>
<path d="M22.2041 13.507C22.2041 8.10865 26.5143 3.7984 32.3084 3.7984C36.2654 3.7984 38.9222 5.79101 40.2789 7.38792L37.5938 9.77622C36.5056 8.68806 34.9653 7.43031 32.3084 7.43031C28.9026 7.43031 26.2458 10.0871 26.2458 13.4929C26.2458 16.8705 28.9026 19.5273 32.3084 19.5273C34.2728 19.5273 35.9262 18.6511 36.5622 18.0151V15.8106H32.7607V12.7015H40.4767V19.5838C39.2755 21.1242 36.1947 23.2016 32.3084 23.2016C26.5143 23.2016 22.2041 18.8772 22.2041 13.507Z" fill="white"/>
<path d="M41.0278 16.3476C41.0278 12.6309 44.0379 9.64905 47.9384 9.64905C51.867 9.64905 54.8489 12.6309 54.8489 16.3476C54.8489 20.0643 51.867 23.0744 47.9384 23.0744C44.0379 23.0744 41.0278 20.0643 41.0278 16.3476ZM51.217 16.3476C51.217 14.4398 49.7614 12.9701 47.9525 12.9701C46.1719 12.9701 44.7021 14.4256 44.7021 16.3476C44.7021 18.2837 46.1577 19.7534 47.9525 19.7534C49.7472 19.7534 51.217 18.2837 51.217 16.3476Z" fill="white"/>
<path d="M60.3887 22.8059L54.2695 4.19415H58.495L62.2965 16.7151H62.3813L66.3099 4.19415H69.8429L73.7716 16.7151H73.8847L77.6579 4.19415H81.7844L75.6653 22.8059H72.0193L68.0623 10.2285H67.9775L64.0206 22.8059H60.3887Z" fill="#77C1CE"/>
<path d="M79.6079 16.3476C79.6079 12.6309 82.618 9.64905 86.5184 9.64905C90.4471 9.64905 93.429 12.6309 93.429 16.3476C93.429 20.0643 90.4471 23.0744 86.5184 23.0744C82.6039 23.0744 79.6079 20.0643 79.6079 16.3476ZM89.7829 16.3476C89.7829 14.4398 88.3273 12.9701 86.5184 12.9701C84.7378 12.9701 83.2681 14.4256 83.2681 16.3476C83.2681 18.2837 84.7237 19.7534 86.5184 19.7534C88.3273 19.7534 89.7829 18.2837 89.7829 16.3476Z" fill="#77C1CE"/>
<path d="M94.1782 22.8059V9.91755H97.7677V11.5145H97.8525C98.3895 10.7231 99.7179 9.64905 101.499 9.64905H102.106V13.5071C101.866 13.4223 101.386 13.2951 100.905 13.2951C99.0961 13.2951 97.7677 14.6235 97.7677 16.7574V22.82H94.1782V22.8059Z" fill="#77C1CE"/>
<path d="M102.572 22.8059V4.19415H106.162V15.0192L110.811 9.91759H115.15L110.232 15.2312L115.418 22.8059H111.348L107.843 17.5347L106.162 19.4001V22.8059H102.572Z" fill="#77C1CE"/>
</svg>
