<svg width="25" height="24" viewBox="0 0 25 24" fill="none" xmlns="http://www.w3.org/2000/svg">
<path d="M15.5 22H4.5C3.4 22 2.5 21.1 2.5 20V9C2.5 8.4 2.9 8 3.5 8C4.1 8 4.5 8.4 4.5 9V20H15.5C16.1 20 16.5 20.4 16.5 21C16.5 21.6 16.1 22 15.5 22Z" fill="#0071BC"/>
<path d="M20.5 18H8.5C7.4 18 6.5 17.1 6.5 16V4C6.5 2.9 7.4 2 8.5 2H20.5C21.6 2 22.5 2.9 22.5 4V16C22.5 17.1 21.6 18 20.5 18ZM8.5 4V16H20.5V4H8.5Z" fill="#0071BC"/>
<path d="M18.2 8.7C18.6 8.3 18.6 7.7 18.2 7.3C17.8 6.9 17.2 6.9 16.8 7.3L18.2 8.7ZM13.5 12L12.8 12.7C13.2 13.1 13.8 13.1 14.2 12.7L13.5 12ZM12.2 9.3C11.8 8.9 11.2 8.9 10.8 9.3C10.4 9.7 10.4 10.3 10.8 10.7L12.2 9.3ZM16.8 7.3L12.8 11.3L14.2 12.7L18.2 8.7L16.8 7.3ZM14.2 11.3L12.2 9.3L10.8 10.7L12.8 12.7L14.2 11.3Z" fill="#0071BC"/>
</svg>
