<svg width="20" height="20" viewBox="0 0 20 20" fill="none" xmlns="http://www.w3.org/2000/svg">
<path d="M7.63314 9.68366C7.60814 9.68366 7.59147 9.68366 7.56647 9.68366C7.52481 9.67533 7.46647 9.67533 7.41647 9.68366C4.9998 9.60866 3.1748 7.70866 3.1748 5.36699C3.1748 2.98366 5.11647 1.04199 7.4998 1.04199C9.88314 1.04199 11.8248 2.98366 11.8248 5.36699C11.8165 7.70866 9.98314 9.60866 7.65814 9.68366C7.6498 9.68366 7.64147 9.68366 7.63314 9.68366ZM7.4998 2.29199C5.80814 2.29199 4.4248 3.67533 4.4248 5.36699C4.4248 7.03366 5.7248 8.37533 7.38314 8.43366C7.43314 8.42533 7.54147 8.42533 7.64981 8.43366C9.28314 8.35866 10.5665 7.01699 10.5748 5.36699C10.5748 3.67533 9.19147 2.29199 7.4998 2.29199Z" fill="#6C38B2"/>
<path d="M13.783 9.79134C13.758 9.79134 13.733 9.79134 13.708 9.78301C13.3663 9.81634 13.0163 9.57468 12.983 9.23301C12.9496 8.89134 13.158 8.58301 13.4996 8.54134C13.5996 8.53301 13.708 8.53301 13.7996 8.53301C15.0163 8.46634 15.9663 7.46634 15.9663 6.24134C15.9663 4.97467 14.9413 3.94967 13.6746 3.94967C13.333 3.95801 13.0496 3.67467 13.0496 3.33301C13.0496 2.99134 13.333 2.70801 13.6746 2.70801C15.6246 2.70801 17.2163 4.29967 17.2163 6.24967C17.2163 8.16634 15.7163 9.71634 13.808 9.79134C13.7996 9.79134 13.7913 9.79134 13.783 9.79134Z" fill="#6C38B2"/>
<path d="M7.64134 18.7913C6.00801 18.7913 4.36634 18.3747 3.12467 17.5413C1.96634 16.7747 1.33301 15.7247 1.33301 14.583C1.33301 13.4413 1.96634 12.383 3.12467 11.608C5.62467 9.94967 9.67467 9.94967 12.158 11.608C13.308 12.3747 13.9497 13.4247 13.9497 14.5663C13.9497 15.708 13.3163 16.7663 12.158 17.5413C10.908 18.3747 9.27467 18.7913 7.64134 18.7913ZM3.81634 12.658C3.01634 13.1913 2.58301 13.8747 2.58301 14.5913C2.58301 15.2997 3.02467 15.983 3.81634 16.508C5.89134 17.8997 9.39134 17.8997 11.4663 16.508C12.2663 15.9747 12.6997 15.2913 12.6997 14.5747C12.6997 13.8663 12.258 13.183 11.4663 12.658C9.39134 11.2747 5.89134 11.2747 3.81634 12.658Z" fill="#6C38B2"/>
<path d="M15.2835 17.2917C14.9918 17.2917 14.7335 17.0917 14.6751 16.7917C14.6085 16.45 14.8251 16.125 15.1585 16.05C15.6835 15.9417 16.1668 15.7333 16.5418 15.4417C17.0168 15.0833 17.2751 14.6333 17.2751 14.1583C17.2751 13.6833 17.0168 13.2333 16.5501 12.8833C16.1835 12.6 15.7251 12.4 15.1835 12.275C14.8501 12.2 14.6335 11.8667 14.7085 11.525C14.7835 11.1917 15.1168 10.975 15.4585 11.05C16.1751 11.2083 16.8001 11.4917 17.3085 11.8833C18.0835 12.4667 18.5251 13.2917 18.5251 14.1583C18.5251 15.025 18.0751 15.85 17.3001 16.4417C16.7835 16.8417 16.1335 17.1333 15.4168 17.275C15.3668 17.2917 15.3251 17.2917 15.2835 17.2917Z" fill="#6C38B2"/>
</svg>
