<svg width="231" height="30" viewBox="0 0 231 30" fill="none" xmlns="http://www.w3.org/2000/svg">
<path d="M8 28.5L22 14.1301H8L22 1.5L8 28.5Z" fill="white"/>
<path d="M8 28.5L22 14.13H20.7762L8 28.5Z" fill="#A3D5F2"/>
<path d="M8 14.1301L22 1.5L9.16927 14.1301H8Z" fill="#87FCF6"/>
<path d="M34 15.0071C34 9.60871 38.3102 5.29846 44.1043 5.29846C48.0613 5.29846 50.7181 7.29107 52.0748 8.88798L49.3897 11.2763C48.3015 10.1881 46.7611 8.93037 44.1043 8.93037C40.6985 8.93037 38.0417 11.5872 38.0417 14.993C38.0417 18.3705 40.6985 21.0273 44.1043 21.0273C46.0687 21.0273 47.7221 20.1511 48.3581 19.5152V17.3106H44.5566V14.2016H52.2726V21.0838C51.0714 22.6242 47.9906 24.7016 44.1043 24.7016C38.3102 24.7016 34 20.3772 34 15.0071Z" fill="white"/>
<path d="M52.8239 17.8476C52.8239 14.1309 55.834 11.149 59.7344 11.149C63.6631 11.149 66.6449 14.1309 66.6449 17.8476C66.6449 21.5643 63.6631 24.5744 59.7344 24.5744C55.834 24.5744 52.8239 21.5643 52.8239 17.8476ZM63.013 17.8476C63.013 15.9398 61.5574 14.4701 59.7485 14.4701C57.9679 14.4701 56.4982 15.9256 56.4982 17.8476C56.4982 19.7837 57.9538 21.2534 59.7485 21.2534C61.5433 21.2534 63.013 19.7837 63.013 17.8476Z" fill="white"/>
<path d="M72.1844 24.306L66.0653 5.69421H70.2907L74.0922 18.2151H74.177L78.1057 5.69421H81.6387L85.5674 18.2151H85.6804L89.4536 5.69421H93.5802L87.461 24.306H83.815L79.8581 11.7286H79.7733L75.8163 24.306H72.1844Z" fill="#77C1CE"/>
<path d="M91.4037 17.8476C91.4037 14.1309 94.4138 11.149 98.3143 11.149C102.243 11.149 105.225 14.1309 105.225 17.8476C105.225 21.5643 102.243 24.5744 98.3143 24.5744C94.3997 24.5744 91.4037 21.5643 91.4037 17.8476ZM101.579 17.8476C101.579 15.9398 100.123 14.4701 98.3143 14.4701C96.5336 14.4701 95.0639 15.9256 95.0639 17.8476C95.0639 19.7837 96.5195 21.2534 98.3143 21.2534C100.123 21.2534 101.579 19.7837 101.579 17.8476Z" fill="#77C1CE"/>
<path d="M105.974 24.3059V11.4176H109.564V13.0145H109.648C110.185 12.2231 111.514 11.149 113.294 11.149H113.902V15.0071C113.662 14.9223 113.181 14.7951 112.701 14.7951C110.892 14.7951 109.564 16.1235 109.564 18.2574V24.32H105.974V24.3059Z" fill="#77C1CE"/>
<path d="M114.368 24.306V5.69421H117.958V16.5193L122.607 11.4177H126.945L122.028 16.7313L127.214 24.306H123.144L119.639 19.0348L117.958 20.9002V24.306H114.368Z" fill="#77C1CE"/>
</svg>
