<svg width="25" height="24" viewBox="0 0 25 24" fill="none" xmlns="http://www.w3.org/2000/svg">
<g clip-path="url(#clip0_2168_100614)">
<path d="M18.1484 0.912752L18.1484 23.0872C18.1484 23.5913 18.557 24 19.0612 24C19.5654 24 19.9739 23.5913 19.9739 23.0872L19.9739 0.912752C19.9739 0.40867 19.5654 -6.19371e-08 19.0612 -3.98976e-08C18.557 -1.78582e-08 18.1484 0.40867 18.1484 0.912752Z" fill="#0071BC"/>
<path d="M11.5879 9.78259L11.5879 14.2175L13.4134 14.2175L13.4134 9.78259L11.5879 9.78259Z" fill="#0071BC"/>
<path d="M11.5879 18.6523L11.5879 23.0872L13.4134 23.0872L13.4134 18.6523L11.5879 18.6523Z" fill="#0071BC"/>
<path d="M6.85089 23.0872L6.85089 0.912752C6.85089 0.40867 6.44234 -6.19371e-08 5.93814 -3.98976e-08C5.43394 -1.78582e-08 5.02539 0.40867 5.02539 0.912752L5.02539 23.0872C5.02539 23.5913 5.43394 24 5.93814 24C6.44235 24 6.85089 23.5913 6.85089 23.0872Z" fill="#0071BC"/>
<path d="M11.5879 0.912721L11.5879 5.3476L13.4134 5.3476L13.4134 0.912721L11.5879 0.912721Z" fill="#0071BC"/>
</g>
<defs>
<clipPath id="clip0_2168_100614">
<rect width="24" height="24" fill="white" transform="translate(0.5 24) rotate(-90)"/>
</clipPath>
</defs>
</svg>
