<svg width="60" height="61" viewBox="0 0 60 61" fill="none" xmlns="http://www.w3.org/2000/svg">
<g clip-path="url(#clip0_7050_32910)">
<path d="M43.3971 42.5806L28.6241 27.8076L26.9847 30.4981L25.1918 24.3754L18.6309 17.8145L14.9198 26.944L12.8527 25.8074L7.09677 41.1605V41.1617L7.26434 45.8489L5.14806 46.3563V46.3575L0.736197 58.1213C0.47254 58.8244 0.684638 59.5239 1.14047 59.9798C1.59513 60.4356 2.29236 60.65 2.99896 60.384L12.3066 56.8944L12.664 54.716L15.9838 55.5152L23.2056 52.8071V50.1061L26.9847 51.3904L33.9874 48.7644L34.7233 46.6692L37.6376 47.3945H37.6388L42.7713 45.4704C43.9701 45.0205 44.2982 43.4817 43.3971 42.5806Z" fill="#FF7D43"/>
<path d="M42.7715 45.4702L37.6389 47.3943C37.6389 47.3943 37.639 47.3943 37.6378 47.3943L34.7235 46.669L33.9876 48.7642L26.9849 51.3902L23.2058 50.1059V52.8069L15.9839 55.515L12.6642 54.7158L12.3068 56.8942L2.99911 60.3838C2.29251 60.6498 1.59529 60.4354 1.14062 59.9796L30.969 30.1523L43.3972 42.5805C44.2983 43.4817 43.9702 45.0204 42.7715 45.4702Z" fill="#E63950"/>
<path d="M37.6378 47.394L33.9876 48.7639C30.2613 44.9145 27.5708 40.1429 26.181 34.9389C25.2776 31.5558 24.9237 27.9889 25.192 24.375L28.6243 27.8072C28.6758 29.2298 28.8352 30.6383 29.0988 32.0211C30.2156 37.8836 33.1908 43.2833 37.6378 47.394Z" fill="#F0F7FF"/>
<path d="M37.6374 47.3944L33.9873 48.7643C30.2609 44.9149 27.5704 40.1433 26.1807 34.9393L29.0985 32.0215C30.2152 37.884 33.1904 43.2837 37.6374 47.3944Z" fill="#DFE7F4"/>
<path d="M26.9844 51.3902L23.2053 52.8069C20.5488 50.4281 18.3189 47.6251 16.6034 44.5163C13.4549 38.814 12.144 32.2392 12.8524 25.8072L15.6495 18.3487C16.0983 17.1546 17.6346 16.8183 18.5392 17.7229L18.6306 17.8143C15.0874 25.807 15.5117 34.6129 19.2048 41.9149C21.0621 45.5921 23.7139 48.8287 26.9844 51.3902Z" fill="#F0F7FF"/>
<path d="M26.9846 51.3903L23.2055 52.807C20.549 50.4282 18.319 47.6253 16.6035 44.5165L19.2049 41.915C21.0622 45.5922 23.714 48.8288 26.9846 51.3903Z" fill="#DFE7F4"/>
<path d="M15.9842 55.5146L12.307 56.8938C10.936 55.5638 9.68685 54.1096 8.57598 52.5441C7.31523 50.7914 6.09374 48.6375 5.14844 46.3569V46.3558L7.09716 41.1611C7.89984 44.3695 9.25211 47.3647 11.0778 50.0423C12.4535 52.0624 14.0999 53.9009 15.9842 55.5146Z" fill="#F0F7FF"/>
<path d="M15.9834 55.5153L12.3062 56.8945C10.9352 55.5645 9.68607 54.1103 8.5752 52.5448L11.077 50.043C12.4527 52.063 14.0991 53.9016 15.9834 55.5153Z" fill="#DFE7F4"/>
<path d="M27.7902 19.6581C27.1038 18.9717 27.1038 17.8588 27.7902 17.1724C34.403 10.5596 32.3585 4.12064 32.3372 4.05631C32.0303 3.13538 32.528 2.13993 33.4489 1.83292C34.3696 1.52579 35.3653 2.02369 35.6723 2.94461C35.7877 3.29123 38.4081 11.526 30.276 19.658C29.5898 20.3444 28.4767 20.3446 27.7902 19.6581Z" fill="#8CD96B"/>
<path d="M41.462 33.3295C42.1485 34.016 43.2614 34.016 43.9478 33.3295C50.5605 26.7168 56.9995 28.7613 57.0639 28.7826C57.9848 29.0895 58.9802 28.5918 59.2872 27.6709C59.5944 26.7502 59.0965 25.7545 58.1755 25.4475C57.8289 25.3321 49.5942 22.7117 41.4622 30.8438C40.7757 31.5301 40.7756 32.6432 41.462 33.3295Z" fill="#5AB267"/>
<path d="M58.5523 8.78205C57.0032 10.3312 54.24 8.68596 53.2733 9.09727C52.862 10.0675 54.5084 12.8271 52.9592 14.3751C51.4101 15.9242 48.6482 14.279 47.6802 14.6903C47.2678 15.6606 48.9153 18.419 47.3662 19.9681C45.8171 21.5173 43.0528 19.872 42.0872 20.2834C41.6747 21.2536 43.3223 24.012 41.7732 25.5612C40.1924 27.1419 37.3976 25.4252 36.4801 25.8823C36.0219 26.3334 35.3751 26.4834 34.7927 26.3275C34.5044 26.2514 34.2314 26.099 34.0052 25.8729C33.3186 25.1862 33.3186 24.073 34.0052 23.3863C35.347 22.0446 37.2254 22.2567 38.6116 22.5086C38.6562 22.5168 38.7007 22.525 38.744 22.5332C38.7358 22.4899 38.7276 22.4453 38.7194 22.4008C38.4687 21.0146 38.2554 19.1362 39.5983 17.7933C40.94 16.4515 42.8184 16.6636 44.2047 16.9156C44.2492 16.9238 44.2937 16.932 44.3371 16.9402C44.3289 16.8968 44.3207 16.8523 44.3125 16.8078C44.0617 15.4215 43.8484 13.5431 45.1913 12.2002C46.533 10.8585 48.4115 11.0706 49.7977 11.3225C49.8422 11.3307 49.8868 11.3389 49.9301 11.3471C49.9219 11.3038 49.9137 11.2593 49.9055 11.2147C49.6547 9.82848 49.4415 7.95007 50.7844 6.60717C52.1261 5.26545 54.0045 5.47755 55.3908 5.72949C55.4353 5.73769 55.4798 5.74589 55.5232 5.7541C55.515 5.71074 55.5068 5.66621 55.4986 5.62168C55.2478 4.23543 55.0345 2.35702 56.3774 1.01413C57.0629 0.328623 58.1761 0.328623 58.8628 1.01413C59.089 1.24029 59.2413 1.51332 59.3175 1.80276C59.4733 2.38398 59.3257 3.03081 58.8734 3.49016C58.421 4.39937 60.1178 7.2164 58.5523 8.78205Z" fill="#FF7D43"/>
<path d="M58.5516 8.78203C57.0025 10.3312 54.2393 8.68594 53.2726 9.09724C52.8613 10.0675 54.5077 12.8271 52.9585 14.3751C51.4094 15.9242 48.6475 14.279 47.6795 14.6903C47.2671 15.6605 48.9146 18.419 47.3655 19.9681C45.8164 21.5172 43.0521 19.872 42.0865 20.2833C41.674 21.2536 43.3216 24.012 41.7725 25.5612C40.1917 27.1419 37.3969 25.4252 36.4794 25.8822C36.0212 26.3334 35.3744 26.4834 34.792 26.3275L38.6109 22.5086C38.6554 22.5168 38.7 22.525 38.7433 22.5332C38.7351 22.4898 38.7269 22.4453 38.7187 22.4008L44.204 16.9155C44.2485 16.9238 44.293 16.932 44.3364 16.9402C44.3282 16.8968 44.32 16.8523 44.3118 16.8077L49.797 11.3225C49.8415 11.3307 49.8861 11.3389 49.9294 11.3471C49.9212 11.3038 49.913 11.2592 49.9048 11.2147L55.39 5.72946C55.4346 5.73767 55.4791 5.74587 55.5225 5.75407C55.5143 5.71072 55.5061 5.66619 55.4979 5.62166L59.3168 1.80273C59.4726 2.38395 59.325 3.03079 58.8727 3.49014C58.4203 4.39934 60.1171 7.21637 58.5516 8.78203Z" fill="#E63950"/>
<path d="M42.705 8.98711C43.6757 8.98711 44.4627 8.20015 44.4627 7.22939C44.4627 6.25863 43.6757 5.47168 42.705 5.47168C41.7342 5.47168 40.9473 6.25863 40.9473 7.22939C40.9473 8.20015 41.7342 8.98711 42.705 8.98711Z" fill="#FFE470"/>
<path d="M55.1337 21.4158C56.1044 21.4158 56.8914 20.6289 56.8914 19.6581C56.8914 18.6873 56.1044 17.9004 55.1337 17.9004C54.1629 17.9004 53.376 18.6873 53.376 19.6581C53.376 20.6289 54.1629 21.4158 55.1337 21.4158Z" fill="#FABE2C"/>
<path d="M52.6483 38.8162C53.6191 38.8162 54.4061 38.0293 54.4061 37.0585C54.4061 36.0877 53.6191 35.3008 52.6483 35.3008C51.6776 35.3008 50.8906 36.0877 50.8906 37.0585C50.8906 38.0293 51.6776 38.8162 52.6483 38.8162Z" fill="#FABE2C"/>
<path d="M25.3046 11.4725C26.2753 11.4725 27.0623 10.6855 27.0623 9.71474C27.0623 8.74399 26.2753 7.95703 25.3046 7.95703C24.3338 7.95703 23.5469 8.74399 23.5469 9.71474C23.5469 10.6855 24.3338 11.4725 25.3046 11.4725Z" fill="#FFE470"/>
</g>
<defs>
<clipPath id="clip0_7050_32910">
<rect width="60" height="60" fill="white" transform="translate(0 0.5)"/>
</clipPath>
</defs>
</svg>
