<svg width="32" height="33" viewBox="0 0 32 33" fill="none" xmlns="http://www.w3.org/2000/svg">
<path d="M15.9998 3.16602C8.65317 3.16602 2.6665 9.15268 2.6665 16.4993C2.6665 23.846 8.65317 29.8327 15.9998 29.8327C23.3465 29.8327 29.3332 23.846 29.3332 16.4993C29.3332 9.15268 23.3465 3.16602 15.9998 3.16602ZM22.3732 13.4327L14.8132 20.9927C14.6265 21.1793 14.3732 21.286 14.1065 21.286C13.8398 21.286 13.5865 21.1793 13.3998 20.9927L9.6265 17.2193C9.23984 16.8327 9.23984 16.1927 9.6265 15.806C10.0132 15.4193 10.6532 15.4193 11.0398 15.806L14.1065 18.8727L20.9598 12.0194C21.3465 11.6327 21.9865 11.6327 22.3732 12.0194C22.7598 12.406 22.7598 13.0327 22.3732 13.4327Z" fill="#0071BC"/>
</svg>
