<svg width="16" height="16" viewBox="0 0 16 16" fill="none" xmlns="http://www.w3.org/2000/svg">
<path fill-rule="evenodd" clip-rule="evenodd" d="M15.6712 3.63143C15.8748 3.81802 15.8885 4.13431 15.7019 4.33787L8.36858 12.3379C8.27643 12.4384 8.14721 12.4969 8.01087 12.4999C7.87452 12.5028 7.74288 12.45 7.64645 12.3536L6.64645 11.3536C6.45118 11.1583 6.45118 10.8417 6.64645 10.6465C6.84171 10.4512 7.15829 10.4512 7.35355 10.6464L7.9843 11.2772L14.9648 3.66214C15.1514 3.45858 15.4676 3.44483 15.6712 3.63143Z" fill="white"/>
<path fill-rule="evenodd" clip-rule="evenodd" d="M11.6705 3.63143C11.8741 3.81802 11.8879 4.13431 11.7013 4.33787L4.36793 12.3379C4.27577 12.4384 4.14656 12.4969 4.01021 12.4999C3.87387 12.5028 3.74223 12.45 3.6458 12.3536L0.312462 9.02022C0.1172 8.82496 0.1172 8.50838 0.312462 8.31312C0.507724 8.11785 0.824307 8.11785 1.01957 8.31312L3.98364 11.2772L10.9641 3.66214C11.1507 3.45858 11.467 3.44483 11.6705 3.63143Z" fill="white"/>
</svg>
