<svg width="20" height="21" viewBox="0 0 20 21" fill="none" xmlns="http://www.w3.org/2000/svg">
<path d="M19.5599 9.04005L18.1999 7.46005C17.9399 7.16005 17.7299 6.60005 17.7299 6.20005V4.50005C17.7299 3.44005 16.8599 2.57005 15.7999 2.57005H14.0999C13.7099 2.57005 13.1399 2.36005 12.8399 2.10005L11.2599 0.740046C10.5699 0.150046 9.43988 0.150046 8.73988 0.740046L7.16988 2.11005C6.86988 2.36005 6.29988 2.57005 5.90988 2.57005H4.17988C3.11988 2.57005 2.24988 3.44005 2.24988 4.50005V6.21005C2.24988 6.60005 2.03988 7.16005 1.78988 7.46005L0.439883 9.05005C-0.140117 9.74005 -0.140117 10.86 0.439883 11.55L1.78988 13.14C2.03988 13.44 2.24988 14 2.24988 14.39V16.1C2.24988 17.16 3.11988 18.03 4.17988 18.03H5.90988C6.29988 18.03 6.86988 18.24 7.16988 18.5L8.74988 19.86C9.43988 20.45 10.5699 20.45 11.2699 19.86L12.8499 18.5C13.1499 18.24 13.7099 18.03 14.1099 18.03H15.8099C16.8699 18.03 17.7399 17.16 17.7399 16.1V14.4C17.7399 14.01 17.9499 13.44 18.2099 13.14L19.5699 11.56C20.1499 10.87 20.1499 9.73005 19.5599 9.04005ZM14.1599 8.41005L9.32988 13.24C9.18988 13.38 8.99988 13.46 8.79988 13.46C8.59988 13.46 8.40988 13.38 8.26988 13.24L5.84988 10.82C5.55988 10.53 5.55988 10.05 5.84988 9.76005C6.13988 9.47005 6.61988 9.47005 6.90988 9.76005L8.79988 11.65L13.0999 7.35005C13.3899 7.06005 13.8699 7.06005 14.1599 7.35005C14.4499 7.64005 14.4499 8.12005 14.1599 8.41005Z" fill="#0071BC"/>
</svg>
