<svg width="13" height="24" viewBox="0 0 13 24" fill="none" xmlns="http://www.w3.org/2000/svg">
<path d="M11.4287 11.7266L2.00684 21.2578L7.02148 11.7266H11.4287ZM6.41797 10.7266H1.31543L10.9033 2.2002L6.41797 10.7266Z" stroke="white"/>
<mask id="path-2-inside-1_7293_2575" fill="white">
<path d="M0 23.995L12.6257 11.2217H11.522L0 23.995Z"/>
</mask>
<path d="M0 23.995L12.6257 11.2217H11.522L0 23.995Z" fill="#A3D5F2"/>
<path d="M0 23.995L-0.742542 23.3252L0.711205 24.698L0 23.995ZM12.6257 11.2217L13.3369 11.9247L15.0202 10.2217H12.6257V11.2217ZM11.522 11.2217V10.2217H11.0773L10.7794 10.5519L11.522 11.2217ZM0 23.995L0.711205 24.698L13.3369 11.9247L12.6257 11.2217L11.9145 10.5187L-0.711205 23.292L0 23.995ZM12.6257 11.2217V10.2217H11.522V11.2217V12.2217H12.6257V11.2217ZM11.522 11.2217L10.7794 10.5519L-0.742542 23.3252L0 23.995L0.742542 24.6648L12.2645 11.8915L11.522 11.2217Z" fill="white" mask="url(#path-2-inside-1_7293_2575)"/>
<mask id="path-4-inside-2_7293_2575" fill="white">
<path d="M0 11.2267L12.6257 0L1.05448 11.2267H0Z"/>
</mask>
<path d="M0 11.2267L12.6257 0L1.05448 11.2267H0Z" fill="#87FCF6"/>
<path d="M0 11.2267L-0.664493 10.4794L-2.62952 12.2267H0V11.2267ZM12.6257 0L13.322 0.717709L11.9612 -0.747295L12.6257 0ZM1.05448 11.2267V12.2267H1.45987L1.75082 11.9444L1.05448 11.2267ZM0 11.2267L0.664493 11.974L13.2901 0.747295L12.6257 0L11.9612 -0.747295L-0.664493 10.4794L0 11.2267ZM12.6257 0L11.9293 -0.717709L0.358138 10.509L1.05448 11.2267L1.75082 11.9444L13.322 0.717709L12.6257 0ZM1.05448 11.2267V10.2267H0V11.2267V12.2267H1.05448V11.2267Z" fill="white" mask="url(#path-4-inside-2_7293_2575)"/>
</svg>
