<svg width="18" height="24" viewBox="0 0 18 24" fill="none" xmlns="http://www.w3.org/2000/svg">
<g clip-path="url(#clip0_1953_12358)">
<path d="M17.2382 12.0478C17.0381 11.877 16.7557 11.841 16.519 11.9562L12.8977 13.7191L9.49982 9.80142C9.37415 9.65649 9.19174 9.57324 8.99989 9.57324C8.80805 9.57324 8.62566 9.65649 8.49996 9.80142L5.10207 13.7191L1.48076 11.9562C1.24408 11.841 0.961701 11.8769 0.761517 12.0478C0.561334 12.2186 0.481392 12.4919 0.557925 12.7437L3.07263 21.0157C3.15737 21.2945 3.41443 21.485 3.70577 21.485H14.294C14.5853 21.485 14.8424 21.2945 14.9271 21.0157L17.4418 12.7437C17.5184 12.4919 17.4384 12.2186 17.2382 12.0478ZM13.8035 20.1615H4.19624L2.26551 13.8103L4.97947 15.1315C5.24894 15.2627 5.57274 15.1964 5.76906 14.9701L8.99989 11.245L12.2308 14.9701C12.427 15.1965 12.7509 15.2626 13.0203 15.1315L15.7343 13.8103L13.8035 20.1615Z" fill="white"/>
</g>
<path d="M13.2363 5.76003C13.1939 5.75297 13.1445 5.75297 13.1022 5.76003C12.128 5.72474 11.3516 4.92709 11.3516 3.93885C11.3516 2.92944 12.1633 2.11768 13.1727 2.11768C14.1821 2.11768 14.9939 2.9365 14.9939 3.93885C14.9869 4.92709 14.2104 5.72474 13.2363 5.76003Z" stroke="white" stroke-width="1.05882" stroke-linecap="round" stroke-linejoin="round"/>
<path d="M12.5095 10.8988C13.4765 11.0611 14.5424 10.8917 15.2906 10.3906C16.2859 9.72703 16.2859 8.63997 15.2906 7.97644C14.5353 7.47527 13.4553 7.30585 12.4883 7.47526" stroke="white" stroke-width="1.05882" stroke-linecap="round" stroke-linejoin="round"/>
<path d="M4.74202 5.76003C4.78438 5.75297 4.83379 5.75297 4.87614 5.76003C5.85026 5.72474 6.62673 4.92709 6.62673 3.93885C6.62673 2.92944 5.81496 2.11768 4.80555 2.11768C3.79614 2.11768 2.98438 2.9365 2.98438 3.93885C2.99143 4.92709 3.76791 5.72474 4.74202 5.76003Z" stroke="white" stroke-width="1.05882" stroke-linecap="round" stroke-linejoin="round"/>
<path d="M5.46905 10.8988C4.50199 11.0611 3.43611 10.8917 2.68788 10.3906C1.69258 9.72703 1.69258 8.63997 2.68788 7.97644C3.44317 7.47527 4.52317 7.30585 5.49023 7.47526" stroke="white" stroke-width="1.05882" stroke-linecap="round" stroke-linejoin="round"/>
<defs>
<clipPath id="clip0_1953_12358">
<rect width="16.9412" height="16.9412" fill="white" transform="translate(0.529297 7.05884)"/>
</clipPath>
</defs>
</svg>
