<svg width="25" height="24" viewBox="0 0 25 24" fill="none" xmlns="http://www.w3.org/2000/svg">
<g clip-path="url(#clip0_2168_100622)">
<path d="M24.2541 10.013L12.9619 0.173248C12.6972 -0.0574238 12.3028 -0.0574238 12.038 0.173248L0.744172 10.0144C0.591219 10.1464 0.500656 10.3377 0.5 10.5447V10.5458V10.5459V10.5471V23.2971C0.5 23.6854 0.814812 24.0002 1.20312 24.0002H23.7969C24.1852 24.0002 24.5 23.6854 24.5 23.2971V10.5515C24.5012 10.3469 24.4141 10.1501 24.2541 10.013ZM12.5 1.63598L22.7266 10.5471C20.0746 12.8552 19.031 13.7555 12.5 19.4582C5.97228 13.7584 4.91305 12.8445 2.27342 10.5471L12.5 1.63598ZM23.0938 22.594H1.90625V12.0924L6.96153 16.4974L3.5653 19.8937C3.2907 20.1682 3.2907 20.6134 3.5653 20.888C3.83984 21.1626 4.28506 21.1626 4.55966 20.888L8.02423 17.4234L12.038 20.921C12.3028 21.1516 12.6972 21.1516 12.9619 20.921L16.9757 17.4234L20.4403 20.888C20.7148 21.1626 21.1601 21.1626 21.4347 20.888C21.7092 20.6134 21.7092 20.1682 21.4347 19.8937L18.0384 16.4974L23.0938 12.0924V22.594Z" fill="#0071BC"/>
</g>
<defs>
<clipPath id="clip0_2168_100622">
<rect width="24" height="24" fill="white" transform="translate(0.5)"/>
</clipPath>
</defs>
</svg>
